<?xml version="1.0" encoding="UTF-8"?>
<svg width="326px" height="412px" viewBox="0 0 326 412" version="1.1" xmlns="http://www.w3.org/2000/svg" xmlns:xlink="http://www.w3.org/1999/xlink">
    <!-- Generator: Sketch 47.1 (45422) - http://www.bohemiancoding.com/sketch -->
    <title>Unstable Table Logo</title>
    <desc>Created with Sketch.</desc>
    <defs>
        <path d="M1.5,0.5 L1.5,34.5" id="path-1"></path>
        <filter x="-250.0%" y="-15.7%" width="600.0%" height="142.9%" filterUnits="objectBoundingBox" id="filter-2">
            <feMorphology radius="0.5" operator="dilate" in="SourceAlpha" result="shadowSpreadOuter1"></feMorphology>
            <feOffset dx="0" dy="2" in="shadowSpreadOuter1" result="shadowOffsetOuter1"></feOffset>
            <feMorphology radius="1" operator="erode" in="SourceAlpha" result="shadowInner"></feMorphology>
            <feOffset dx="0" dy="2" in="shadowInner" result="shadowInner"></feOffset>
            <feComposite in="shadowOffsetOuter1" in2="shadowInner" operator="out" result="shadowOffsetOuter1"></feComposite>
            <feGaussianBlur stdDeviation="2" in="shadowOffsetOuter1" result="shadowBlurOuter1"></feGaussianBlur>
            <feColorMatrix values="0 0 0 0 0   0 0 0 0 0   0 0 0 0 0  0 0 0 0.5 0" type="matrix" in="shadowBlurOuter1"></feColorMatrix>
        </filter>
        <path d="M62.5,0.5 L62.5,34.5" id="path-3"></path>
        <filter x="-250.0%" y="-15.7%" width="600.0%" height="142.9%" filterUnits="objectBoundingBox" id="filter-4">
            <feMorphology radius="0.5" operator="dilate" in="SourceAlpha" result="shadowSpreadOuter1"></feMorphology>
            <feOffset dx="0" dy="2" in="shadowSpreadOuter1" result="shadowOffsetOuter1"></feOffset>
            <feMorphology radius="1" operator="erode" in="SourceAlpha" result="shadowInner"></feMorphology>
            <feOffset dx="0" dy="2" in="shadowInner" result="shadowInner"></feOffset>
            <feComposite in="shadowOffsetOuter1" in2="shadowInner" operator="out" result="shadowOffsetOuter1"></feComposite>
            <feGaussianBlur stdDeviation="2" in="shadowOffsetOuter1" result="shadowBlurOuter1"></feGaussianBlur>
            <feColorMatrix values="0 0 0 0 0   0 0 0 0 0   0 0 0 0 0  0 0 0 0.5 0" type="matrix" in="shadowBlurOuter1"></feColorMatrix>
        </filter>
        <path d="M31.5,24.5 L31.5,57.5" id="path-5"></path>
        <filter x="-250.0%" y="-16.2%" width="600.0%" height="144.1%" filterUnits="objectBoundingBox" id="filter-6">
            <feMorphology radius="0.5" operator="dilate" in="SourceAlpha" result="shadowSpreadOuter1"></feMorphology>
            <feOffset dx="0" dy="2" in="shadowSpreadOuter1" result="shadowOffsetOuter1"></feOffset>
            <feMorphology radius="1" operator="erode" in="SourceAlpha" result="shadowInner"></feMorphology>
            <feOffset dx="0" dy="2" in="shadowInner" result="shadowInner"></feOffset>
            <feComposite in="shadowOffsetOuter1" in2="shadowInner" operator="out" result="shadowOffsetOuter1"></feComposite>
            <feGaussianBlur stdDeviation="2" in="shadowOffsetOuter1" result="shadowBlurOuter1"></feGaussianBlur>
            <feColorMatrix values="0 0 0 0 0   0 0 0 0 0   0 0 0 0 0  0 0 0 0.5 0" type="matrix" in="shadowBlurOuter1"></feColorMatrix>
        </filter>
    </defs>
    <g id="Page-1" stroke="none" stroke-width="1" fill="none" fill-rule="evenodd">
        <g id="Unstable-Table-Logo" transform="translate(-1.000000, 1.000000)">
            <g id="Group" transform="translate(0.000000, 124.000000)">
                <polygon id="Combined-Shape" fill="#000000" points="32 172 62 196 2 196"></polygon>
                <rect id="Path" fill="#000000" x="2" y="2" width="60" height="171"></rect>
                <path d="M32.5,194.5 L32.5,55.5" id="Line-9" stroke="#979797" stroke-linecap="square"></path>
                <path d="M32.5,195.5 L62.5,171.5" id="Line-8" stroke="#979797" stroke-linecap="square"></path>
                <path d="M1.5,171.5 L31.5,195.5" id="Line-7" stroke="#979797" stroke-linecap="square"></path>
                <path d="M1.5,31.5 L1.5,172.5" id="Line-5" stroke="#979797" stroke-linecap="square"></path>
                <path d="M62.5,78.5 L62.5,172.5" id="Line-6" stroke="#979797" stroke-linecap="square"></path>
                <path d="M1.5,0.5 L1.5,31.5" id="Line-4" stroke="#979797" stroke-linecap="square"></path>
            </g>
            <g id="Missing-Leg" transform="translate(260.000000, 263.000000)">
                <path d="M3.25,35 L32,58 L60.75,35 L62,35 L61.375,34.5 L62,34 L60.75,34 L32,11 L3.25,34 L2,34 L2.625,34.5 L2,35 L3.25,35 Z" id="Combined-Shape" stroke="#000000"></path>
                <g id="Line-10" stroke-linecap="square">
                    <use fill="black" fill-opacity="1" filter="url(#filter-2)" xlink:href="#path-1"></use>
                    <use stroke="#000000" stroke-width="1" xlink:href="#path-1"></use>
                </g>
                <g id="Line-11" stroke-linecap="square">
                    <use fill="black" fill-opacity="1" filter="url(#filter-4)" xlink:href="#path-3"></use>
                    <use stroke="#000000" stroke-width="1" xlink:href="#path-3"></use>
                </g>
                <g id="Line-12" stroke-linecap="square">
                    <use fill="black" fill-opacity="1" filter="url(#filter-6)" xlink:href="#path-5"></use>
                    <use stroke="#000000" stroke-width="1" xlink:href="#path-5"></use>
                </g>
            </g>
            <g id="Group-Copy" transform="translate(292.000000, 205.500000) scale(-1, 1) translate(-292.000000, -205.500000) translate(260.000000, 124.000000)">
                <path d="M3.25,140 L32,163 L60.75,140 L62,140 L62,0 L2,0 L2,140 L3.25,140 Z" id="Combined-Shape" fill="#000000"></path>
                <path d="M32.5,161.5 L32.5,22.5" id="Line-9" stroke="#979797" stroke-linecap="square"></path>
                <path d="M32.5,162.5 L62.5,138.5" id="Line-8" stroke="#979797" stroke-linecap="square"></path>
                <path d="M1.5,138.5 L31.5,162.5" id="Line-7" stroke="#979797" stroke-linecap="square"></path>
                <path d="M1.5,0.5 L1.5,139.5" id="Line-5" stroke="#979797" stroke-linecap="square"></path>
                <path d="M62.5,45.5 L62.5,139.5" id="Line-6" stroke="#979797" stroke-linecap="square"></path>
            </g>
            <g id="Group-Copy-2" transform="translate(163.000000, 313.000000) scale(-1, 1) translate(-163.000000, -313.000000) translate(131.000000, 215.000000)">
                <polygon id="Combined-Shape" fill="#000000" points="32 172 62 196 2 196"></polygon>
                <rect id="Path" fill="#000000" x="2" y="2" width="60" height="171"></rect>
                <path d="M32.5,194.5 L32.5,55.5" id="Line-9" stroke="#979797" stroke-linecap="square"></path>
                <path d="M32.5,195.5 L62.5,171.5" id="Line-8" stroke="#979797" stroke-linecap="square"></path>
                <path d="M1.5,171.5 L31.5,195.5" id="Line-7" stroke="#979797" stroke-linecap="square"></path>
                <path d="M1.5,31.5 L1.5,172.5" id="Line-5" stroke="#979797" stroke-linecap="square"></path>
                <path d="M62.5,42.5 L62.5,172.5" id="Line-6" stroke="#979797" stroke-linecap="square"></path>
                <path d="M1.5,0.5 L1.5,31.5" id="Line-4" stroke="#979797" stroke-linecap="square"></path>
            </g>
            <path d="M320.72,155 L162,31 L3.28,155 L2,155 L2.64,155.5 L2,156 L3.28,156 L162,280 L320.72,156 L322,156 L321.36,155.5 L322,155 L320.72,155 Z" id="Combined-Shape-Copy" stroke="#979797" fill="#000000"></path>
            <path d="M162,249.5 L162,280.5" id="Line-4" stroke="#979797" stroke-linecap="square"></path>
            <rect id="Path" fill="#000000" x="2" y="125" width="320" height="31"></rect>
            <path d="M320.72,124 L162,0 L3.28,124 L2,124 L2.64,124.5 L2,125 L3.28,125 L162,249 L320.72,125 L322,125 L321.36,124.5 L322,124 L320.72,124 Z" id="Combined-Shape" stroke="#9B9B9B" fill="#000000"></path>
        </g>
    </g>
</svg>