<?xml version="1.0" encoding="UTF-8"?>
<svg width="169px" height="200px" viewBox="0 0 169 200" version="1.1" xmlns="http://www.w3.org/2000/svg" xmlns:xlink="http://www.w3.org/1999/xlink">
    <!-- Generator: Sketch 47.1 (45422) - http://www.bohemiancoding.com/sketch -->
    <title>User Icon</title>
    <desc>Created with Sketch.</desc>
    <defs>
        <rect id="path-1" x="0" y="5.58598028" width="15.1462995" height="14.8959474"></rect>
        <rect id="path-2" x="45.4388985" y="5.58598028" width="15.1462995" height="14.8959474"></rect>
        <rect id="path-3" x="30.292599" y="5.58598028" width="15.1462995" height="14.8959474"></rect>
        <rect id="path-4" x="15.1462995" y="5.58598028" width="15.1462995" height="14.8959474"></rect>
        <rect id="path-5" x="60.5851979" y="5.58598028" width="15.1462995" height="14.8959474"></rect>
        <rect id="path-6" x="75.7314974" y="5.58598028" width="15.1462995" height="14.8959474"></rect>
        <rect id="path-7" x="90.8777969" y="5.58598028" width="15.1462995" height="14.8959474"></rect>
    </defs>
    <g id="Page-1" stroke="none" stroke-width="1" fill="none" fill-rule="evenodd">
        <g id="Desktop-HD" transform="translate(-111.000000, -362.000000)">
            <g id="User-Icon" transform="translate(111.000000, 362.000000)">
                <path d="M0.0325097352,200 C0.0108837863,199.214026 0,198.425367 0,197.634165 C0,151.031741 37.7591175,113.253012 84.3373494,113.253012 C130.915581,113.253012 168.674699,151.031741 168.674699,197.634165 C168.674699,198.425367 168.663815,199.214026 168.642189,200 L0.0325094968,199.999991 Z" id="Combined-Shape" fill="#000000"></path>
                <ellipse id="Oval-3" fill="#000000" cx="85.5421687" cy="48.7951807" rx="49.3975904" ry="48.7951807"></ellipse>
                <g id="TWA-Icon" transform="translate(30.120482, 162.650602)">
                    <g id="Rectangle-3">
                        <use fill="#D0021B" fill-rule="evenodd" xlink:href="#path-1"></use>
                        <rect stroke="#000000" stroke-width="0.5" x="0.25" y="5.83598028" width="14.6462995" height="14.3959474"></rect>
                    </g>
                    <g id="Rectangle-3-Copy-3">
                        <use fill="#4A90E2" fill-rule="evenodd" xlink:href="#path-2"></use>
                        <rect stroke="#000000" stroke-width="0.5" x="45.6888985" y="5.83598028" width="14.6462995" height="14.3959474"></rect>
                    </g>
                    <g id="Rectangle-3-Copy-2">
                        <use fill="#F8E71C" fill-rule="evenodd" xlink:href="#path-3"></use>
                        <rect stroke="#000000" stroke-width="0.5" x="30.542599" y="5.83598028" width="14.6462995" height="14.3959474"></rect>
                    </g>
                    <g id="Rectangle-3-Copy">
                        <use fill="#F5A623" fill-rule="evenodd" xlink:href="#path-4"></use>
                        <rect stroke="#000000" stroke-width="0.5" x="15.3962995" y="5.83598028" width="14.6462995" height="14.3959474"></rect>
                    </g>
                    <g id="Rectangle-3-Copy-4">
                        <use fill="#BD10E0" fill-rule="evenodd" xlink:href="#path-5"></use>
                        <rect stroke="#000000" stroke-width="0.5" x="60.8351979" y="5.83598028" width="14.6462995" height="14.3959474"></rect>
                    </g>
                    <g id="Rectangle-3-Copy-5">
                        <use fill="#7ED321" fill-rule="evenodd" xlink:href="#path-6"></use>
                        <rect stroke="#000000" stroke-width="0.5" x="75.9814974" y="5.83598028" width="14.6462995" height="14.3959474"></rect>
                    </g>
                    <g id="Rectangle-3-Copy-6">
                        <use fill="#9013FE" fill-rule="evenodd" xlink:href="#path-7"></use>
                        <rect stroke="#000000" stroke-width="0.5" x="91.1277969" y="5.83598028" width="14.6462995" height="14.3959474"></rect>
                    </g>
                    <polygon id="Triangle" fill="#FFFFFF" transform="translate(7.573150, 1.861993) scale(1, -1) translate(-7.573150, -1.861993) " points="7.57314974 0 11.3597246 3.72398686 3.78657487 3.72398686"></polygon>
                </g>
            </g>
        </g>
    </g>
</svg>